<?xml version="1.0" standalone="no"?>
<!DOCTYPE svg PUBLIC "-//W3C//DTD SVG 20010904//EN"
 "http://www.w3.org/TR/2001/REC-SVG-20010904/DTD/svg10.dtd">
<svg version="1.0" xmlns="http://www.w3.org/2000/svg"
 width="300.000000pt" height="300.000000pt" viewBox="0 0 300.000000 300.000000"
 preserveAspectRatio="xMidYMid meet">
<metadata>
Created by potrace 1.11, written by Peter Selinger 2001-2013
</metadata>
<g transform="translate(0.000000,300.000000) scale(0.100000,-0.100000)"
fill="#000000" stroke="none">
<path d="M2028 2722 c-16 -2 -28 -7 -28 -12 0 -17 -44 -27 -160 -35 -47 -3
-121 -10 -165 -15 -44 -5 -105 -12 -135 -15 -77 -8 -99 -12 -231 -40 -156 -34
-142 -31 -249 -55 -100 -22 -109 -24 -266 -44 -82 -11 -109 -10 -159 1 -72 17
-128 11 -207 -23 -33 -14 -65 -23 -71 -21 -7 2 -20 0 -30 -5 -25 -13 -6 -34
38 -42 39 -8 188 -115 208 -149 22 -39 10 -578 -17 -752 -35 -224 -138 -634
-207 -820 -28 -77 -62 -174 -76 -215 -37 -109 -91 -219 -131 -267 -40 -50 -32
-53 41 -17 119 60 215 159 253 261 10 27 28 65 41 86 24 39 81 186 115 297 10
36 32 106 48 155 29 90 83 325 95 420 4 28 9 53 11 56 6 11 15 293 18 581 1
153 4 280 7 282 2 2 24 7 47 11 24 3 108 26 185 49 78 24 164 46 190 50 27 4
59 9 70 12 12 2 36 6 52 9 17 3 41 7 55 10 14 3 41 7 60 10 19 3 69 12 110 20
41 8 86 17 100 19 14 3 48 10 75 16 28 6 122 13 209 16 l159 6 -6 -128 c-4
-71 -10 -174 -14 -229 -16 -206 -9 -738 12 -855 2 -14 9 -72 15 -130 6 -58 13
-121 15 -140 2 -19 7 -62 10 -95 13 -139 110 -417 187 -535 57 -89 181 -211
247 -244 97 -50 263 -67 316 -32 13 9 35 28 49 42 24 27 24 27 6 68 -10 23
-21 62 -25 86 -10 67 -34 147 -65 220 -15 36 -43 127 -61 203 -19 77 -38 136
-44 134 -6 -2 -10 -57 -11 -143 -1 -76 -4 -157 -7 -179 -3 -22 -8 -73 -12
-113 -8 -85 -16 -92 -78 -67 -183 73 -318 331 -352 675 -3 36 -8 83 -11 105
-26 247 -23 735 6 880 5 28 12 82 15 120 12 163 14 167 98 219 46 29 54 40 63
91 11 64 -62 124 -211 174 -91 30 -148 40 -197 33z"/>
<path d="M1578 2334 c-12 -11 -9 -42 4 -46 29 -10 -9 -42 -94 -82 -121 -57
-228 -94 -418 -147 -195 -54 -243 -73 -238 -96 4 -20 41 -22 236 -10 125 8
143 4 168 -44 18 -35 20 -43 28 -119 7 -62 1 -77 -34 -83 -14 -3 -52 -10 -85
-16 -33 -6 -69 -13 -80 -15 -11 -2 -72 -14 -135 -26 -63 -12 -121 -24 -128
-26 -9 -3 -3 -17 21 -46 47 -59 65 -96 72 -154 21 -178 43 -259 81 -297 32
-33 57 -38 91 -20 15 8 39 17 53 19 14 2 53 9 87 15 94 17 93 17 88 -102 -3
-56 -7 -120 -10 -141 -3 -21 -6 -59 -7 -83 l-1 -45 -51 -15 c-28 -8 -121 -32
-206 -53 -147 -38 -158 -39 -214 -28 -84 17 -196 9 -196 -14 0 -5 13 -16 30
-25 16 -8 58 -40 92 -71 102 -91 180 -121 215 -82 10 11 36 31 58 43 73 43
400 144 545 169 19 3 45 8 58 11 13 2 56 7 97 10 l73 6 24 -33 c21 -27 44 -91
74 -200 7 -24 71 -78 92 -78 10 0 31 14 48 31 25 27 29 37 28 87 0 31 -11 95
-23 142 -46 176 -228 387 -351 406 -38 7 -39 -8 -1 -64 16 -23 38 -69 49 -102
24 -69 29 -65 -88 -75 -41 -4 -84 -9 -95 -11 -144 -28 -150 -27 -135 10 9 25
25 108 35 186 13 98 26 155 38 168 7 7 36 15 63 18 27 3 63 7 79 9 17 3 71 7
120 11 50 4 97 8 105 10 8 1 30 3 47 3 64 2 86 56 47 116 -13 21 -12 32 18
132 18 60 43 122 56 137 12 16 22 32 22 37 0 34 -189 140 -237 134 -15 -2 -59
-9 -98 -14 -38 -6 -95 -13 -125 -17 -30 -3 -58 -8 -62 -11 -13 -7 -14 39 -3
118 6 42 4 49 -22 74 -15 14 -41 34 -58 43 -26 14 -28 16 -10 20 11 2 25 8 30
13 6 4 33 11 60 14 46 6 205 45 333 81 47 14 52 18 52 44 0 58 -150 157 -267
176 -21 3 -41 2 -45 -2z m207 -694 c1 -25 -3 -70 -7 -100 -5 -30 -11 -71 -13
-90 -13 -86 -23 -106 -54 -108 -17 -1 -61 -8 -98 -15 -38 -7 -84 -13 -103 -13
l-35 1 2 135 c1 74 2 149 3 166 l0 31 108 20 c59 11 127 19 152 19 l45 -1 0
-45z m-515 -51 c8 -13 15 -89 25 -248 2 -30 1 -60 -2 -67 -4 -12 -116 -40
-183 -46 -33 -3 -34 -1 -41 37 -3 22 -9 78 -13 125 -6 88 -21 150 -37 150 -5
0 -9 4 -9 9 0 16 73 38 160 48 25 3 46 6 47 8 9 7 47 -4 53 -16z"/>
</g>
</svg>
