<?xml version="1.0" standalone="no"?>
<!DOCTYPE svg PUBLIC "-//W3C//DTD SVG 20010904//EN"
 "http://www.w3.org/TR/2001/REC-SVG-20010904/DTD/svg10.dtd">
<svg version="1.0" xmlns="http://www.w3.org/2000/svg"
 width="300.000000pt" height="300.000000pt" viewBox="0 0 300.000000 300.000000"
 preserveAspectRatio="xMidYMid meet">
<metadata>
Created by potrace 1.11, written by Peter Selinger 2001-2013
</metadata>
<g transform="translate(0.000000,300.000000) scale(0.100000,-0.100000)"
fill="#000000" stroke="none">
<path d="M1993 2712 c-17 -15 -45 -22 -105 -27 -283 -23 -469 -50 -699 -100
-136 -30 -303 -61 -371 -70 -114 -15 -130 -15 -186 -1 -67 18 -113 12 -207
-24 -27 -10 -63 -20 -80 -22 -22 -2 -30 -8 -30 -23 0 -14 13 -24 50 -37 56
-20 137 -73 180 -119 l30 -31 -2 -286 c-3 -357 -15 -452 -100 -817 -54 -230
-81 -325 -156 -530 -98 -272 -143 -374 -184 -417 -19 -20 -24 -31 -16 -39 7
-7 33 2 88 33 117 65 179 138 258 300 63 129 124 286 148 378 6 25 24 83 39
130 45 135 99 418 110 580 5 80 10 278 10 441 0 320 -2 309 52 309 12 0 89 20
172 45 93 27 249 62 406 89 140 25 288 52 328 61 46 9 126 15 213 15 l140 0
-6 -67 c-44 -523 -43 -794 5 -1248 34 -319 52 -408 122 -588 58 -149 123 -252
219 -349 103 -103 210 -148 353 -148 68 0 111 20 148 71 19 25 19 26 -1 78
-12 28 -21 64 -21 79 0 32 -39 157 -69 223 -11 26 -35 107 -52 180 -34 144
-43 166 -65 148 -10 -8 -11 -31 -7 -92 5 -73 -9 -311 -23 -394 -5 -29 -8 -30
-35 -23 -100 29 -191 111 -251 227 -75 143 -103 251 -135 519 -24 200 -24 772
0 909 8 50 18 128 22 174 9 110 15 124 70 156 63 37 85 69 85 120 0 37 -5 47
-39 78 -71 64 -202 115 -316 123 -59 4 -73 2 -92 -14z"/>
<path d="M1573 2339 c-18 -18 -16 -48 2 -55 28 -11 15 -22 -77 -67 -116 -56
-218 -92 -428 -152 -172 -48 -250 -78 -250 -93 0 -5 8 -16 18 -24 14 -13 34
-14 122 -7 58 4 138 8 177 8 l73 1 21 -41 c13 -26 23 -70 26 -114 7 -86 25
-74 -172 -109 -77 -14 -156 -30 -175 -36 -19 -5 -52 -10 -72 -10 -47 0 -56
-15 -29 -48 56 -71 70 -108 86 -217 21 -152 40 -212 80 -252 36 -36 91 -46
101 -18 4 9 19 15 38 15 17 1 60 7 96 15 35 7 68 11 72 9 11 -7 10 -120 -3
-253 -7 -64 -12 -117 -13 -118 -1 -1 -91 -25 -201 -54 -185 -47 -204 -50 -248
-40 -80 18 -206 9 -214 -15 -2 -7 17 -24 43 -39 26 -15 74 -52 106 -82 85 -78
167 -106 198 -68 28 34 75 58 198 102 261 92 590 157 638 125 18 -11 40 -61
67 -152 26 -85 46 -114 95 -139 26 -14 51 -3 81 35 28 36 27 107 -2 222 -32
123 -129 269 -232 347 -65 50 -148 84 -160 66 -2 -5 16 -48 40 -97 68 -137 68
-131 -12 -139 -37 -3 -110 -13 -161 -22 -51 -8 -95 -13 -98 -11 -2 3 0 17 6
32 5 15 19 91 30 169 26 174 26 176 53 182 12 3 113 14 225 24 163 15 206 22
222 36 24 22 26 58 3 95 -16 28 -16 33 16 137 18 59 42 120 52 134 10 15 19
34 19 43 0 20 -66 68 -147 109 l-63 31 -157 -22 c-86 -12 -159 -20 -161 -17
-3 2 -1 36 5 75 10 80 7 90 -48 130 -39 28 -39 29 -19 40 12 6 48 16 81 21 85
14 348 85 365 100 25 21 15 49 -35 99 -74 71 -248 139 -278 109z m207 -711
c-1 -49 -34 -266 -42 -272 -6 -5 -206 -36 -231 -36 -18 0 -27 7 -31 25 -4 14
-4 30 -1 35 3 5 6 60 7 122 0 62 4 121 9 131 6 9 22 17 37 18 15 0 54 6 87 14
33 7 84 14 113 14 l52 1 0 -52z m-507 -85 c3 -32 9 -106 13 -165 l7 -106 -39
-11 c-69 -20 -164 -35 -171 -27 -4 3 -13 68 -20 143 -10 100 -18 142 -30 156
-23 25 -9 33 82 48 38 6 75 13 80 14 6 2 24 4 41 4 31 1 31 0 37 -56z"/>
</g>
</svg>
